<?xml version="1.0" standalone="no"?>
<!DOCTYPE svg PUBLIC "-//W3C//DTD SVG 20010904//EN"
 "http://www.w3.org/TR/2001/REC-SVG-20010904/DTD/svg10.dtd">
<svg version="1.0" xmlns="http://www.w3.org/2000/svg"
 width="186.000000pt" height="186.000000pt" viewBox="0 0 186.000000 186.000000"
 preserveAspectRatio="xMidYMid meet">
<metadata>
Created by potrace 1.11, written by Peter Selinger 2001-2013
</metadata>
<g transform="translate(0.000000,186.000000) scale(0.100000,-0.100000)"
fill="#000000" stroke="none">
<path d="M1462 1299 c-108 -13 -210 -73 -246 -145 -56 -114 -13 -220 169 -412
134 -142 146 -160 131 -198 -5 -13 -17 -15 -70 -11 -73 6 -141 35 -181 77 -31
33 -60 39 -69 15 -11 -29 13 -52 103 -102 13 -7 33 -15 45 -17 11 -2 32 -8 46
-13 14 -6 52 -11 85 -12 33 -2 63 -5 67 -7 5 -3 8 -1 8 3 0 5 25 14 56 21 31
6 77 25 103 41 64 42 92 87 98 159 5 53 2 65 -27 118 -35 65 -71 111 -151 196
-79 82 -94 101 -123 151 -27 45 -27 46 -8 65 34 34 130 11 214 -51 22 -17 30
-18 43 -7 20 17 19 25 -8 54 -26 27 -109 63 -165 72 -21 3 -41 6 -47 8 -5 1
-38 -1 -73 -5z"/>
<path d="M461 1166 c-47 -72 -137 -213 -200 -314 -64 -101 -140 -220 -168
-265 -45 -71 -50 -84 -37 -93 32 -25 54 -2 132 133 42 75 89 156 103 181 15
26 31 48 36 49 6 2 23 -34 38 -79 15 -46 32 -89 38 -95 5 -7 7 -13 4 -13 -3 0
1 -17 10 -37 8 -21 20 -49 25 -62 8 -23 16 -17 168 137 88 89 165 162 171 162
8 0 9 -21 5 -71 -10 -110 -19 -231 -18 -259 0 -45 2 -51 12 -45 6 4 83 7 171
8 88 0 162 3 164 6 3 6 8 85 20 296 10 175 19 454 16 483 0 7 -98 -83 -217
-200 -118 -117 -219 -213 -222 -213 -4 0 -18 30 -30 65 -85 234 -104 289 -113
317 -5 18 -13 34 -17 36 -4 3 -45 -55 -91 -127z"/>
</g>
</svg>
